<?xml version="1.0" encoding="utf-8"?>
<!-- Generator: Adobe Illustrator 27.2.0, SVG Export Plug-In . SVG Version: 6.00 Build 0)  -->
<svg version="1.1" id="Laag_1" xmlns="http://www.w3.org/2000/svg" xmlns:xlink="http://www.w3.org/1999/xlink" x="0px" y="0px"
	 viewBox="0 0 369.1 170" style="enable-background:new 0 0 369.1 170;" xml:space="preserve">
<style type="text/css">
	.st0{fill-rule:evenodd;clip-rule:evenodd;fill:#FFFFFF;}
	.st1{fill:#FFFFFF;}
</style>
<g>
	<polygon id="_54807176" class="st0" points="134.2,52.8 123.2,52.8 123.2,9.5 107.3,9.5 107.3,0.1 150.2,0.1 150.2,9.5 134.2,9.5 	
		"/>
	<polygon id="_54806200" class="st0" points="164,29.2 164,52.8 153,52.8 153,0.1 164,0.1 164,20.1 184.6,20.1 184.6,0.1 195.6,0.1 
		195.6,52.8 184.6,52.8 184.6,29.2 	"/>
	<polygon id="_54805224" class="st0" points="239.6,9.5 211.9,9.5 211.9,20.6 236.3,20.6 236.3,29.9 211.9,29.9 211.9,43.5 
		239.7,43.5 239.7,52.8 201.7,52.8 201.7,0.1 239.6,0.1 	"/>
	<polygon id="_54804504" class="st0" points="32.7,58.1 43,58.1 43,110.8 32,110.8 10.5,73.2 10.3,73.2 10.3,110.8 0,110.8 0,58.1 
		11.6,58.1 32.6,94.8 32.7,94.8 	"/>
	<path id="_54803152" class="st0" d="M73.7,102.8c5.9,0,14.3-3.7,14.3-18.4S79.6,66,73.7,66c-5.9,0-14.3,3.7-14.3,18.4
		C59.4,99.2,67.8,102.8,73.7,102.8L73.7,102.8z M73.7,56.7c7,0,25.3,3,25.3,27.7s-18.3,27.7-25.3,27.7s-25.3-3-25.3-27.7
		S66.7,56.7,73.7,56.7z"/>
	<polygon id="_54865864" class="st0" points="177.2,110.8 166.2,110.8 166.2,67.4 150.2,67.4 150.2,58.1 193.1,58.1 193.1,67.4 
		177.2,67.4 	"/>
	<polygon id="_54865008" class="st0" points="208.1,87.1 208.1,110.8 197.1,110.8 197.1,58.1 208.1,58.1 208.1,78 228.6,78 
		228.6,58.1 239.6,58.1 239.6,110.8 228.6,110.8 228.6,87.1 	"/>
	<polygon id="_54864288" class="st0" points="82.5,168.7 71.5,168.7 71.5,116 109,116 109,125.3 82.5,125.3 82.5,137.2 105.7,137.2 
		105.7,146.5 82.5,146.5 	"/>
	<path id="_54863304" class="st0" d="M120.6,148.7H134l-6.5-20.8h-0.1L120.6,148.7L120.6,148.7z M114,168.7h-11.6l18.8-52.7h12.7
		l18.6,52.7h-12l-3.4-10.9h-19.4L114,168.7z"/>
	<path id="_54862224" class="st0" d="M186.3,133.2c-0.9-3.2-2.6-9.1-11.7-9.1c-5.3,0-13.1,3.5-13.1,18.4c0,9.5,3.7,18,13.1,18
		c6.1,0,10.4-3.5,11.7-9.9h11c-2.2,11.4-9.7,19.4-22.9,19.4c-14,0-24.1-9.5-24.1-27.7c0-18.4,10.6-27.8,24.2-27.8
		c15.8,0,22.1,10.9,22.7,18.6h-10.9V133.2z"/>
	<polygon id="_55197680" class="st0" points="239.6,125.3 211.9,125.3 211.9,136.4 236.3,136.4 236.3,145.7 211.9,145.7 
		211.9,159.3 239.7,159.3 239.7,168.7 201.7,168.7 201.7,116 239.6,116 	"/>
	<path id="_55197592" class="st0" d="M128.1,81.2c5.7,0,8.5-2,8.5-7.2c0-2.8-1.2-6.9-7.7-6.9h-13.7v14.1L128.1,81.2L128.1,81.2z
		 M104.4,58H131c14,0,16.5,10.3,16.5,14.9c0,5.8-2.9,10.8-8.1,12.5c4.3,1.9,6.7,3.5,6.7,13.3c0,7.7,0,9.6,2.3,10.5v1.4h-12.2
		c-0.7-2.5-1.2-5.2-1.2-10.6c0-7.2-0.4-10-8.6-10h-11.2v20.6h-10.8V58L104.4,58z"/>
	<g>
		<polygon class="st0" points="273.6,168.6 273.6,131.8 273.6,131.8 273.6,130.9 273.5,130 273.4,129.1 273.3,128.2 273.1,127.4 
			272.9,126.6 272.6,125.8 272.3,125 271.9,124.2 271.5,123.5 271.1,122.7 270.7,122 270.2,121.3 269.7,120.7 269.1,120 
			268.5,119.4 267.9,118.9 267.3,118.3 266.6,117.8 266,117.3 265.3,116.9 264.5,116.4 263.8,116.1 263,115.7 262.2,115.4 
			261.4,115.1 260.6,114.9 259.7,114.7 258.9,114.5 258,114.4 257.1,114.4 256.2,114.3 256.2,114.3 246.8,114.4 246.8,168.6 		"/>
		<path class="st0" d="M246.9,0L246.9,0l-0.1,54.2h5.5v2.2h-5.5v55.7h9.4h1l1,0.1l1,0.1l1,0.2l0.9,0.2l0.9,0.3l0.9,0.3l0.9,0.4
			l0.9,0.4l0.8,0.4l0.8,0.5l0.8,0.5l0.8,0.5l0.7,0.6l0.7,0.6l0.7,0.6l0.6,0.7l0.6,0.7l0.6,0.7l0.5,0.8l0.5,0.8l0.5,0.8l0.4,0.8
			l0.4,0.9l0.4,0.9l0.3,0.9l0.3,0.9l0.2,0.9l0.2,1l0.1,1l0.1,1v1l0,0v36.9l0,0h41v-47.6l-0.1-3.3l-0.2-3.3l-0.4-3.2l-0.6-3.2
			l-0.7-3.1l-0.9-3.1l-1-3l-1.2-2.9l-1.3-2.9l-1.4-2.8l-1.6-2.7l-1.7-2.6l-1.8-2.5l-1.9-2.4l-2-2.3l-2.1-2.2l-2.2-2.1l-2.3-2
			l-2.4-1.9l-2.5-1.8l-2.6-1.7l-2.7-1.6l-2.8-1.4l-2.9-1.3l-2.9-1.2l-3-1l-3.1-0.9l-3.1-0.7l-3.2-0.6l-3.2-0.4l-3.3-0.2l-3.3-0.1
			v-2.2l3.4,0.1l3.4,0.3l3.3,0.4l3.3,0.6l3.2,0.7l3.2,0.9l3.1,1l3,1.2l3,1.3l2.9,1.5l2.8,1.6l2.7,1.7l2.6,1.9l2.5,2l2.4,2.1l2.3,2.2
			l2.2,2.3l2.1,2.4l2,2.5l1.9,2.6l1.7,2.7l1.6,2.8l1.5,2.9l1.3,3l1.2,3l1,3.1l0.9,3.2l0.7,3.2l0.6,3.3l0.4,3.3l0.3,3.4l0.1,3.4l0,0
			v47.6h50.2v-45.9C369.3,55,314.7,0,246.9,0z"/>
	</g>
	<path class="st1" d="M53.2,157.5l0.6,0.6v6.8h-1.1v-6.8L53.2,157.5z M52.6,158v-0.6h0.6L52.6,158z M56.1,158.6L56.1,158.6h-3v-1.1
		h3V158.6z M56.1,157.5L56.1,157.5L56.1,157.5L56.1,157.5z M59.1,159.8H58l0,0v-0.1v-0.1v-0.1v-0.1v-0.1v-0.1v-0.1V159l0,0l0,0l0,0
		l0,0l0,0l0,0l0,0l0,0l0,0h-0.1h-0.1h-0.1h-0.1h-0.1h-0.1h-0.1h-0.1h-0.1H57h-0.1h-0.1h-0.1h-0.1h-0.2v-1.1h0.2h0.2H57h0.2h0.2h0.2
		h0.1h0.1h0.1H58l0.1,0.1l0.1,0.1l0.1,0.1l0.1,0.1l0.1,0.1l0.1,0.1l0.1,0.1l0.1,0.1l0.1,0.1l0.1,0.1l0.1,0.1l0.1,0.1l0.1,0.1v0.1
		v0.1v0.1v0.1v0.1v0.1v0.1v0.1L59.1,159.8L59.1,159.8L59.1,159.8z M59.1,159.8L59.1,159.8L59.1,159.8L59.1,159.8z M56.4,162.3v-1.1
		l0,0h0.1h0.1h0.1h0.1h0.1H57h0.1h0.1h0.1h0.1h0.1h0.1h0.1h0.1h0.1l0,0l0,0l0,0l0,0l0,0l0,0l0,0v-0.1V161v-0.1v-0.1v-0.1v-0.1v-0.1
		v-0.1v-0.1v-0.1H59v0.1v0.1v0.1v0.1v0.1v0.1v0.1l-0.1,0.1l-0.1,0.1l-0.1,0.1l-0.1,0.1l-0.1,0.1l-0.1,0.1l-0.1,0.1l-0.1,0.1
		l-0.1,0.1l-0.1,0.1l-0.1,0.1l-0.1,0.1l-0.1,0.1l-0.1,0.1h-0.1h-0.1h-0.1h-0.1h-0.1H57h-0.1h-0.1h-0.1h-0.1L56.4,162.3L56.4,162.3
		L56.4,162.3z M56.4,162.2L56.4,162.2L56.4,162.2L56.4,162.2z M53.2,161.1h3.2v1.1h-3.2V161.1z M57.9,165.1l-2-3l0.9-0.6l2,3
		L57.9,165.1z"/>
	<path class="st1" d="M48.7,161.4h-1.1l0,0V161v-0.4v-0.4l0.1-0.4l0.1-0.4l0.1-0.4l0.1-0.4l0.1-0.4l0.2-0.3l0.2-0.3l0.2-0.3l0.2-0.3
		l0.2-0.3l0.2-0.3l0.2-0.3l0.3-0.3l0.3-0.3l0.3-0.2l0.3-0.2l0.3-0.2l0.3-0.2l0.3-0.2l0.3-0.2l0.3-0.2l0.4-0.1l0.4-0.1l0.4-0.1
		l0.4-0.1l0.4-0.1h0.4H55h0.4v1.1h-0.3h-0.3h-0.3l-0.3,0.1l-0.3,0.1l-0.3,0.1l-0.3,0.1l-0.3,0.1l-0.3,0.1l-0.5,0.3l-0.3,0.2
		l-0.3,0.2l-0.3,0.2l-0.3,0.2l-0.2,0.2l-0.2,0.2l-0.2,0.2l-0.2,0.2l-0.2,0.3l-0.2,0.3l-0.2,0.3l-0.2,0.3l-0.1,0.3l-0.1,0.3l-0.1,0.3
		l-0.1,0.3l-0.1,0.3l-0.1,0.3l-0.1,0.3v0.3v0.3L48.7,161.4L48.7,161.4L48.7,161.4z M48.7,161.4L48.7,161.4L48.7,161.4L48.7,161.4z
		 M55.4,168.1v1.1l0,0H55h-0.4h-0.4l-0.4-0.1l-0.4-0.1l-0.4-0.1l-0.4-0.1l-0.4-0.1l-0.3-0.2l-0.3-0.2l-0.3-0.2l-0.3-0.2l-0.3-0.2
		l-0.3-0.2l-0.3-0.2l-0.3-0.3l-0.3-0.3l-0.2-0.3l-0.2-0.3l-0.2-0.3l-0.2-0.3l-0.2-0.3l-0.2-0.3l-0.2-0.3l-0.1-0.4l-0.1-0.4l-0.1-0.4
		l-0.1-0.4l-0.1-0.4v-0.4v-0.4v-0.4h1.1v0.3v0.3v0.3l0.1,0.3l0.1,0.3l0.1,0.3l0.1,0.3l0.1,0.3l0.1,0.3l0.1,0.3l0.2,0.3l0.2,0.3
		l0.2,0.3l0.2,0.3l0.2,0.2l0.2,0.2l0.2,0.2l0.2,0.2l0.3,0.2l0.3,0.2l0.3,0.2l0.3,0.2l0.3,0.1l0.3,0.1l0.3,0.1l0.3,0.1l0.3,0.1
		l0.3,0.1l0.3,0.1h0.3h0.3L55.4,168.1L55.4,168.1L55.4,168.1z M55.4,168.1L55.4,168.1L55.4,168.1L55.4,168.1L55.4,168.1z
		 M62.1,161.4h1.1l0,0v0.4v0.4v0.4l-0.1,0.4l-0.1,0.4l-0.1,0.4l-0.1,0.4l-0.1,0.4l-0.2,0.3l-0.2,0.3l-0.2,0.3l-0.2,0.3l-0.2,0.3
		l-0.2,0.3l-0.2,0.3L61,167l-0.3,0.3l-0.3,0.2l-0.3,0.2l-0.3,0.2l-0.3,0.2l-0.3,0.2l-0.3,0.2l-0.3,0.2l-0.4,0.1l-0.4,0.1l-0.4,0.1
		l-0.4,0.1l-0.4,0.1h-0.4h-0.4h-0.4v-1.1h0.3H56h0.3l0.3-0.1l0.3-0.1l0.3-0.1l0.3-0.1l0.3-0.1l0.3-0.1l0.3-0.1l0.3-0.2L59,167
		l0.3-0.2l0.3-0.2l0.2-0.2l0.2-0.2l0.2-0.2l0.2-0.2l0.2-0.3l0.2-0.3l0.2-0.3l0.2-0.3l0.1-0.3l0.1-0.3l0.1-0.3l0.1-0.3l0.1-0.3
		l0.1-0.3l0.1-0.3v-0.3v-0.3L62.1,161.4L62.1,161.4L62.1,161.4z M62.1,161.4L62.1,161.4L62.1,161.4L62.1,161.4z M55.4,154.8v-1.1
		l0,0h0.4h0.4h0.4l0.4,0.1l0.4,0.1l0.4,0.1l0.4,0.1l0.4,0.1l0.3,0.2l0.3,0.2l0.3,0.2l0.3,0.2l0.3,0.2l0.3,0.2l0.3,0.2l0.3,0.3
		l0.3,0.3l0.2,0.3l0.2,0.3l0.2,0.3l0.2,0.3l0.2,0.3l0.2,0.3l0.2,0.3l0.1,0.4l0.1,0.4l0.1,0.4l0.1,0.4l0.1,0.4v0.4v0.4v0.4h-1.1v-0.3
		v-0.3v-0.3l-0.1-0.3l-0.1-0.3l-0.1-0.3l-0.1-0.3l-0.1-0.3l-0.1-0.3l-0.1-0.3l-0.2-0.3l-0.2-0.3l-0.2-0.3l-0.2-0.3l-0.2-0.2
		l-0.2-0.2l-0.2-0.2l-0.2-0.2l-0.3-0.2l-0.3-0.2l-0.3-0.2l-0.3-0.2l-0.3-0.1l-0.3-0.1l-0.3-0.1l-0.3-0.1l-0.3-0.1l-0.3-0.1l-0.3-0.1
		h-0.3h-0.3L55.4,154.8L55.4,154.8L55.4,154.8z M55.4,154.8L55.4,154.8L55.4,154.8L55.4,154.8L55.4,154.8z"/>
</g>
</svg>
